<svg xmlns="http://www.w3.org/2000/svg" fill="currentColor" viewBox="0 0 640 640" aria-hidden="true" focusable="false"><path d="M128 128C128 92.7 156.7 64 192 64H405.5C422.5 64 438.8 70.7 450.8 82.7L493.3 125.2C505.3 137.2 512 153.5 512 170.5V208H128V128zM64 320C64 284.7 92.7 256 128 256H512C547.3 256 576 284.7 576 320V416C576 433.7 561.7 448 544 448H512V512C512 547.3 483.3 576 448 576H192C156.7 576 128 547.3 128 512V448H96C78.3 448 64 433.7 64 416V320zM192 480V512H448V416H192V480zM520 336C520 322.7 509.3 312 496 312S472 322.7 472 336S482.7 360 496 360S520 349.3 520 336z"/></svg>
